<?xml version="1.0" encoding="UTF-8"?>
<svg width="240" height="80" viewBox="0 0 240 80" fill="none" xmlns="http://www.w3.org/2000/svg">
  <!-- Dots pattern in circular arrangement -->
  <g fill="#26457A">
    <!-- Outer circle -->
    <circle cx="25" cy="40" r="2.5"/>
    <circle cx="37" cy="36" r="2.5"/>
    <circle cx="47" cy="40" r="2.5"/>
    <circle cx="55" cy="48" r="2.5"/>
    <circle cx="58" cy="60" r="2.5"/>
    <circle cx="55" cy="72" r="2.5"/>
    <circle cx="47" cy="80" r="2.5"/>
    <circle cx="37" cy="84" r="2.5"/>
    <circle cx="25" cy="80" r="2.5"/>
    <circle cx="17" cy="72" r="2.5"/>
    <circle cx="14" cy="60" r="2.5"/>
    <circle cx="17" cy="48" r="2.5"/>
    
    <!-- Inner dots -->
    <circle cx="25" cy="48" r="2.5"/>
    <circle cx="37" cy="48" r="2.5"/>
    <circle cx="47" cy="48" r="2.5"/>
    <circle cx="25" cy="60" r="2.5"/>
    <circle cx="37" cy="60" r="2.5"/>
    <circle cx="47" cy="60" r="2.5"/>
    <circle cx="25" cy="72" r="2.5"/>
    <circle cx="37" cy="72" r="2.5"/>
    <circle cx="47" cy="72" r="2.5"/>
  </g>
  
  <!-- Quits text -->
  <text x="80" y="68" fill="#26457A" font-family="Arial, sans-serif" font-size="36" font-weight="500">
    Quits
  </text>
</svg> 